<svg xmlns="http://www.w3.org/2000/svg" xmlns:xlink="http://www.w3.org/1999/xlink" width="35" height="33.969" viewBox="0 0 35 33.969">
  <defs>
    <style>
      .cls-1 {
        fill: #fff;
        fill-rule: evenodd;
        filter: url(#filter);
      }
    </style>
    <filter id="filter" x="0" y="0.031" width="35" height="33.969" filterUnits="userSpaceOnUse">
      <feOffset result="offset" dy="1" in="SourceAlpha"/>
      <feGaussianBlur result="blur" stdDeviation="1"/>
      <feFlood result="flood" flood-opacity="0.25"/>
      <feComposite result="composite" operator="in" in2="blur"/>
      <feBlend result="blend" in="SourceGraphic"/>
    </filter>
  </defs>
  <path id="behance" class="cls-1" d="M16.806,30.765a15.372,15.372,0,1,1,15.35-15.372A15.361,15.361,0,0,1,16.806,30.765Zm0.163-18.023c0-3.473-3.774-3.195-3.774-3.195l-5.6,0L7.6,21.872l5.223-.035s4.494,0.347,4.534-3.689a2.912,2.912,0,0,0-1.895-2.914A2.555,2.555,0,0,0,16.969,12.741ZM25.3,10.217H20.513v1.376H25.3V10.217Zm-2.451,2.108c-4.586,0-4.361,4.814-4.361,4.814s-0.256,4.739,4.451,4.739a3.909,3.909,0,0,0,4.15-2.992H24.763A1.767,1.767,0,0,1,23,19.925a2.092,2.092,0,0,1-2.2-2.2L27.2,17.7S27.861,12.325,22.854,12.325Zm-0.015,1.968a1.916,1.916,0,0,1,2.015,1.867l-4,.03A2.022,2.022,0,0,1,22.839,14.293ZM12.723,19.7l-2.607-.01-0.01-3.283s1.585,0.01,2.652.01c0,0,2.01-.141,2.01,1.526A1.743,1.743,0,0,1,12.723,19.7Zm0.02-5.305-2.632.015V11.688L12.385,11.7s2.133-.284,2.133,1.313S12.743,14.4,12.743,14.4Z" transform="translate(0 -0.031)"/>
</svg>
