<svg xmlns="http://www.w3.org/2000/svg" xmlns:xlink="http://www.w3.org/1999/xlink" width="34" height="33.75" viewBox="0 0 34 33.75">
  <defs>
    <style>
      .cls-1 {
        fill: #fff;
        fill-rule: evenodd;
        filter: url(#filter);
      }
    </style>
    <filter id="filter" x="121" y="776.25" width="34" height="33.75" filterUnits="userSpaceOnUse">
      <feOffset result="offset" dy="1" in="SourceAlpha"/>
      <feGaussianBlur result="blur" stdDeviation="1"/>
      <feFlood result="flood" flood-opacity="0.25"/>
      <feComposite result="composite" operator="in" in2="blur"/>
      <feBlend result="blend" in="SourceGraphic"/>
    </filter>
  </defs>
  <path id="dribbble_" data-name="dribbble " class="cls-1" d="M137.546,803.716A11.993,11.993,0,1,1,149.5,791.724,11.972,11.972,0,0,1,137.546,803.716Zm9.785-10.734a21.723,21.723,0,0,0-6.279-.044,43.614,43.614,0,0,1,1.915,7.052A9.652,9.652,0,0,0,147.331,792.982Zm-6.247,7.974a44.287,44.287,0,0,0-1.963-7.587c-4.928,1.378-7.619,6.16-7.627,6.16A9.846,9.846,0,0,0,141.084,800.956Zm-11.043-2.818c3.733-5.642,8.4-6.494,8.4-6.494l-0.8-1.763s-3.212,1.236-9.94,1.448A9.948,9.948,0,0,0,130.041,798.138Zm-2.136-8.5a34.561,34.561,0,0,0,8.92-1.328,33.658,33.658,0,0,0-3.721-5.419A10.028,10.028,0,0,0,127.905,789.641Zm7.144-7.484a21.844,21.844,0,0,1,3.722,5.468,16.255,16.255,0,0,0,5.217-3.388A9.831,9.831,0,0,0,135.049,782.157Zm10.133,3.3a15.34,15.34,0,0,1-5.629,3.751c0.3,0.645.579,1.316,0.851,2a24.524,24.524,0,0,1,6.984-.017A9.73,9.73,0,0,0,145.182,785.458Zm-7.538-9.193a15.372,15.372,0,1,1-15.35,15.372A15.361,15.361,0,0,1,137.644,776.265Z" transform="translate(-121 -776.25)"/>
</svg>
