<svg xmlns="http://www.w3.org/2000/svg" xmlns:xlink="http://www.w3.org/1999/xlink" width="34" height="33.75" viewBox="0 0 34 33.75">
  <defs>
    <style>
      .cls-1 {
        fill: #fff;
        fill-rule: evenodd;
        filter: url(#filter);
      }
    </style>
    <filter id="filter" x="0" y="0.25" width="34" height="33.75" filterUnits="userSpaceOnUse">
      <feOffset result="offset" dy="1" in="SourceAlpha"/>
      <feGaussianBlur result="blur" stdDeviation="1"/>
      <feFlood result="flood" flood-opacity="0.25"/>
      <feComposite result="composite" operator="in" in2="blur"/>
      <feBlend result="blend" in="SourceGraphic"/>
    </filter>
  </defs>
  <path id="dribbble_" data-name="dribbble " class="cls-1" d="M16.546,27.716A11.993,11.993,0,1,1,28.5,15.724,11.972,11.972,0,0,1,16.546,27.716Zm9.785-10.734a21.715,21.715,0,0,0-6.279-.044,43.6,43.6,0,0,1,1.915,7.052A9.652,9.652,0,0,0,26.331,16.982Zm-6.247,7.973a44.347,44.347,0,0,0-1.963-7.587c-4.928,1.378-7.619,6.16-7.627,6.16A9.846,9.846,0,0,0,20.084,24.956ZM9.041,22.138c3.732-5.643,8.4-6.494,8.4-6.494l-0.8-1.763S13.43,15.117,6.7,15.329A9.957,9.957,0,0,0,9.041,22.138ZM6.9,13.641a34.575,34.575,0,0,0,8.92-1.327,33.625,33.625,0,0,0-3.72-5.42A10.028,10.028,0,0,0,6.9,13.641Zm7.144-7.484a21.821,21.821,0,0,1,3.722,5.468,16.247,16.247,0,0,0,5.217-3.389A9.832,9.832,0,0,0,14.049,6.157Zm10.133,3.3a15.346,15.346,0,0,1-5.629,3.75c0.3,0.645.579,1.316,0.851,2a24.49,24.49,0,0,1,6.984-.017A9.727,9.727,0,0,0,24.182,9.458ZM16.644,0.265A15.372,15.372,0,1,1,1.294,15.637,15.361,15.361,0,0,1,16.644.265Z" transform="translate(0 -0.25)"/>
</svg>
