<svg xmlns="http://www.w3.org/2000/svg" xmlns:xlink="http://www.w3.org/1999/xlink" width="48" height="48" viewBox="0 0 48 48">
  <defs>
    <style>
      .cls-1 {
        fill: #fff;
        fill-rule: evenodd;
        filter: url(#filter);
      }
    </style>
    <filter id="filter" x="-1" y="-0.063" width="49" height="48.063" filterUnits="userSpaceOnUse">
      <feOffset result="offset" dy="1" in="SourceAlpha"/>
      <feGaussianBlur result="blur" stdDeviation="1"/>
      <feFlood result="flood" flood-opacity="0.25"/>
      <feComposite result="composite" operator="in" in2="blur"/>
      <feBlend result="blend" in="SourceGraphic"/>
    </filter>
  </defs>
  <path id="google_plus_" data-name="google plus " class="cls-1" d="M23.707,30.123c-0.084.135,0.388,3.437-5.012,3.64-5.806-.1-5.929-3.78-5.929-4.118-0.025-3.835,5.145-4.026,6.475-4.068C20.388,25.723,23.667,27.627,23.707,30.123Zm-5.269-9.914c4.477,0,3.332-5.02,3.332-5.02s-1.082-4.858-4.241-4.517c-4.046.046-2.923,5.1-2.923,5.1S15.552,20.049,18.438,20.209Zm-0.261.857c-0.641.05-.8,0.039-1.075,0.056A5.358,5.358,0,0,1,11.567,15.8a6.013,6.013,0,0,1,2.093-4.517c1.046-.895,2.621-1.811,6.064-1.811h6.959L24.512,10.68h-2.1A5.532,5.532,0,0,1,24.855,15.2c0,3.985-3.791,4.428-3.791,6.488,0,1.13,1.244,1.586,2.1,2.362a5.538,5.538,0,0,1,2.628,4.7c0,3.186-2.92,6.368-8.7,6.424,0.023,0.034-7.184.135-7.42-4.843,0,0.034-.326-2.233,2.768-4.124,1.91-1.266,4.439-1.373,6.413-1.575a3.254,3.254,0,0,1-1-2.273A3.191,3.191,0,0,1,18.177,21.066ZM31.47,9.305h2.115v8.461H31.47V9.305ZM28.3,12.478h8.461v2.115H28.3V12.478ZM23.475-.05a22.5,22.5,0,1,1-22.5,22.5A22.5,22.5,0,0,1,23.475-.05Z"/>
</svg>
