<svg xmlns="http://www.w3.org/2000/svg" xmlns:xlink="http://www.w3.org/1999/xlink" width="49" height="48.938" viewBox="0 0 49 48.938">
  <defs>
    <style>
      .cls-1 {
        fill: #fff;
        fill-rule: evenodd;
        filter: url(#filter);
      }
    </style>
    <filter id="filter" x="0" y="0.063" width="49" height="48.938" filterUnits="userSpaceOnUse">
      <feOffset result="offset" dy="1" in="SourceAlpha"/>
      <feGaussianBlur result="blur" stdDeviation="1"/>
      <feFlood result="flood" flood-opacity="0.25"/>
      <feComposite result="composite" operator="in" in2="blur"/>
      <feBlend result="blend" in="SourceGraphic"/>
    </filter>
  </defs>
  <path id="linkedin" class="cls-1" d="M13.873,11.722a2.624,2.624,0,1,1-2.624,2.624A2.623,2.623,0,0,1,13.873,11.722Zm-2.311,6.9h5.091V33.99H11.562V18.624Zm8.464-.094v15.4h5.153V25.745S24.81,22.59,27.958,22.59c2.648,0,2.342,3.248,2.342,2.874,0.025-1.449,0,8.495,0,8.495l5.059,0.015s0.063-8.026.063-8.057c0-1.452.026-7.667-5.689-7.667a4.806,4.806,0,0,0-4.551,2.561V18.53H20.026Zm3.51-18.459a22.5,22.5,0,1,1-22.5,22.5A22.5,22.5,0,0,1,23.535.071Z" transform="translate(0 -0.063)"/>
</svg>
