<svg xmlns="http://www.w3.org/2000/svg" xmlns:xlink="http://www.w3.org/1999/xlink" width="34" height="34" viewBox="0 0 34 34">
  <defs>
    <style>
      .cls-1 {
        fill: #fff;
        fill-rule: evenodd;
        filter: url(#filter);
      }
    </style>
    <filter id="filter" x="0" y="0" width="34" height="34" filterUnits="userSpaceOnUse">
      <feOffset result="offset" dy="1" in="SourceAlpha"/>
      <feGaussianBlur result="blur" stdDeviation="1"/>
      <feFlood result="flood" flood-opacity="0.25"/>
      <feComposite result="composite" operator="in" in2="blur"/>
      <feBlend result="blend" in="SourceGraphic"/>
    </filter>
  </defs>
  <path id="twitter" class="cls-1" d="M16.234,13.541c-6.226-4.21-6.639-3.4-6.639-3.389C9.106,11.247,11,12.633,11,12.633l-0.542.016s-0.8-.026-0.623.543a3.669,3.669,0,0,0,1.13,1.489,1.548,1.548,0,0,0,1.046.011s-0.616.322-1.006,0.567c-0.643.415-.181,0.784-0.111,0.854a3.042,3.042,0,0,0,2.152.838,3.278,3.278,0,0,0-.616,1.013,1.054,1.054,0,0,0,.442.769,2.045,2.045,0,0,0,.907.279c-3.369,3.575-7.43-.021-7.43-0.034,0.454,2.62,4.3,5.146,11.069,4.168,5.488-.873,7.244-6.893,7.244-6.893s2.267,0.128,2.523-1.223a5.671,5.671,0,0,1-1.732-.082s1.744-.757,1.825-1.665a3.859,3.859,0,0,1-2.581.571c-1.186-4.134-4.035-4.134-4.035-4.134s1.209-.687,1.174-1.106a1.517,1.517,0,0,0-1.181.268,0.437,0.437,0,0,0-.167-0.652,1.324,1.324,0,0,0-.674.7A0.657,0.657,0,0,0,19.478,8.6C17.571,9.128,16.228,13.535,16.234,13.541ZM16.538,0A15.372,15.372,0,1,1,1.187,15.375,15.361,15.361,0,0,1,16.538,0Z"/>
</svg>
