<svg xmlns="http://www.w3.org/2000/svg" xmlns:xlink="http://www.w3.org/1999/xlink" width="49" height="48" viewBox="0 0 49 48">
  <defs>
    <style>
      .cls-1 {
        fill: #fff;
        fill-rule: evenodd;
        filter: url(#filter);
      }
    </style>
    <filter id="filter" x="0" y="-0.031" width="49" height="48.031" filterUnits="userSpaceOnUse">
      <feOffset result="offset" dy="1" in="SourceAlpha"/>
      <feGaussianBlur result="blur" stdDeviation="1"/>
      <feFlood result="flood" flood-opacity="0.25"/>
      <feComposite result="composite" operator="in" in2="blur"/>
      <feBlend result="blend" in="SourceGraphic"/>
    </filter>
  </defs>
  <path id="twitter" class="cls-1" d="M24.03,19.79C14.9,13.629,14.3,14.813,14.3,14.83c-0.716,1.6,2.062,3.63,2.062,3.63l-0.794.024s-1.167-.039-0.912.8a5.371,5.371,0,0,0,1.656,2.18,2.276,2.276,0,0,0,1.534.017s-0.9.471-1.475,0.829c-0.942.608-.265,1.148-0.163,1.25a4.463,4.463,0,0,0,3.155,1.228,4.791,4.791,0,0,0-.9,1.482,1.541,1.541,0,0,0,.648,1.125,3.006,3.006,0,0,0,1.329.409C15.5,33.032,9.543,27.769,9.543,27.749c0.665,3.835,6.306,7.533,16.225,6.1,8.044-1.278,10.618-10.09,10.618-10.09s3.323,0.188,3.7-1.789a8.336,8.336,0,0,1-2.539-.12s2.557-1.108,2.676-2.437a5.662,5.662,0,0,1-3.784.835C34.7,14.2,30.523,14.2,30.523,14.2s1.773-1.006,1.721-1.619c-0.545-.392-1.639.392-1.732,0.392a0.639,0.639,0,0,0-.245-0.955,1.94,1.94,0,0,0-.988,1.023,0.963,0.963,0,0,0-.494-0.477C25.99,13.33,24.021,19.781,24.03,19.79ZM24.475-.025a22.5,22.5,0,1,1-22.5,22.5A22.5,22.5,0,0,1,24.475-.025Z"/>
</svg>
